<?xml version="1.0" encoding="UTF-8"?>
<svg id="Camada_2" data-name="Camada 2" xmlns="http://www.w3.org/2000/svg" viewBox="0 0 1310.15 391.75">
  <defs>
    <style>
      .cls-1 {
        fill: #070707;
      }

      .cls-2 {
        fill: #009fdf;
      }
    </style>
  </defs>
  <g id="Logo_vetor" data-name="Logo vetor">
    <g>
      <path class="cls-1" d="M943.21,137.67c16.42,8.35,16.41,36.29.62,45.54-8.67,5.08-26.58.12-26.64,15.64-.07,16.43,23.39,12.35,34.7,14.78,64.13,13.76,89.83,96.97,47.25,146.07-53.88,62.12-153.81,28.23-160.11-52.64-1.87-24.01,23.23-42.22,43.16-26.18,15.62,12.57,3.03,32.52,22.75,49.46,34.17,29.35,81.62-15.23,56.49-50.57-16.92-23.8-41.84-11.45-64.14-24.26-36.26-20.83-43.09-72.52-13.93-102.1,13.3-13.49,41.82-24.91,59.86-15.74Z"/>
      <path class="cls-1" d="M648.74,137.32c18.59,9.45,20.89,40.27,1.45,50.54-7.83,4.14-13.09,3.16-20.72,4.3-36.28,5.4-63.92,29.17-64.85,61.59-.25,8.62-.91,109.63-.91,109.63-2.75,36.3-58.29,36.45-58.02.04.23-31.26-.69-79.3.03-111.28.96-42.42,29.8-81.98,67.12-101.88,17.59-9.37,57.52-22.29,75.9-12.95Z"/>
      <path class="cls-1" d="M768.19,137.49c9.09,3.97,16.45,17.04,16.91,26.81l-.55,200.14c-1.88,35.73-54.36,36.74-57.05,1.06,0,0,.88-133.12-.53-202.46,1.9-19.27,22.37-33.79,41.23-25.55Z"/>
      <path class="cls-1" d="M458.99,247.02c-8.11-83.78-96.6-133.31-173.96-105.21-3.49,1.27-12.05,6.66-15.1,6.9-4.03.31-7.67-2.62-8.2-6.52,0,0,0-66.24-1.11-71.13-2.67-11.78-10.8-20.85-20.99-23.42-16.16-4.07-33.53,7.31-37.06,23.14,0,0,.67,196.45.88,200.05,3.11,52.56,46.76,102.28,97.58,115.18,85.99,21.82,166.47-50.9,157.94-138.99ZM378.59,314.53c-55.81,50.05-140.73-9.13-113.39-78.33,10.06-25.45,43.07-47.9,70.28-45.19,61.1,6.09,90.74,80.8,43.1,123.52Z"/>
      <path class="cls-1" d="M1291.77,198.5c-16.44-27.18-48.79-53.43-79.87-61.25-100.97-25.43-190.3,79.16-149.95,174.03,26.96,63.39,92.65,91.84,158.03,74.03,22.93-6.25,48.71-25.42,31.58-51.41-17.53-26.59-42.66-3.54-64.17-1.55-23.11,2.14-44.79-8.27-58.69-26.75-4.96-6.59-11.24-15.78-.62-20.37,55.02-.92,110.55,2.07,165.3-1.54,32.27-9.27,10.14-65.78-1.6-85.19ZM1229.86,238.21c-30.87.2-85.09-.03-97.8-.07-4.82-.02-15.7-1.29-4.78-17.85,17.4-26.38,44.93-30.23,57.9-28.99,20.37,1.93,37.68,11.15,49.16,28.99,5.39,8.39,9.18,15.82-4.48,17.92Z"/>
      <path class="cls-2" d="M88.01,2.44C47.88-8.68,3.36,19.48.24,61.11c-5.84,78.12,94.53,103.43,128.98,39.12,19.66-36.7-.91-86.62-41.22-97.79ZM53.65,90.41c-24.57-17.53-6.45-54.24,20.9-47.54,39.92,9.78,12.51,71.37-20.9,47.54Z"/>
    </g>
  </g>
</svg>